<svg xmlns="http://www.w3.org/2000/svg" xmlns:xlink="http://www.w3.org/1999/xlink" width="800" zoomAndPan="magnify" viewBox="0 0 600 299.999988" height="400" preserveAspectRatio="xMidYMid meet" version="1.0"><defs><clipPath id="cd82a3a4ae"><path d="M 11.386719 82 L 142 82 L 142 207 L 11.386719 207 Z M 11.386719 82 " clip-rule="nonzero"/></clipPath><clipPath id="80e7dfa403"><path d="M 513 92 L 588.886719 92 L 588.886719 167 L 513 167 Z M 513 92 " clip-rule="nonzero"/></clipPath><clipPath id="6889c6922e"><path d="M 480 72.578125 L 503 72.578125 L 503 95 L 480 95 Z M 480 72.578125 " clip-rule="nonzero"/></clipPath></defs><g clip-path="url(#cd82a3a4ae)"><path fill="#0062ad" d="M 98.707031 96.679688 C 34.507812 86.058594 10.214844 141.738281 37.074219 173.238281 C 69.023438 210.714844 116.625 193.523438 126.320312 152.230469 L 98.753906 152.230469 C 98.753906 152.230469 98.753906 135.75 98.753906 135.75 L 141.476562 135.730469 C 143.164062 193.804688 83.804688 225.53125 38.714844 194.054688 C -19.847656 153.164062 22.933594 64.769531 98.789062 84.972656 Z M 98.707031 96.679688 " fill-opacity="1" fill-rule="evenodd"/></g><g clip-path="url(#80e7dfa403)"><path fill="#4cad31" d="M 533.269531 107.515625 C 533.269531 107.515625 531.324219 103.382812 526.785156 105.707031 C 522.246094 108.039062 524.191406 112.949219 524.191406 112.949219 L 518.230469 112.949219 C 518.230469 112.949219 523.21875 117.925781 523.21875 117.925781 L 526.851562 121.546875 L 530.546875 121.546875 C 530.546875 121.546875 532.234375 125.617188 532.234375 125.617188 C 532.234375 125.617188 540.917969 123.667969 544.292969 132.464844 C 544.292969 132.464844 576.445312 123.007812 580.855469 124.691406 L 588.886719 149.511719 C 588.886719 149.511719 585.257812 157.660156 569.832031 159.34375 C 569.832031 159.34375 566.199219 136.589844 563.871094 134.523438 C 561.542969 132.457031 551.300781 134.265625 551.300781 134.265625 L 536.671875 137.375 C 536.671875 137.375 537.167969 150.566406 545.339844 152.886719 C 545.339844 152.886719 557.132812 152.75 558.175781 154.433594 C 559.214844 156.117188 559.734375 156.894531 558.304688 159.214844 L 562.714844 159.089844 C 562.714844 159.089844 564.402344 163.488281 562.714844 165.425781 C 561.027344 167.367188 559.863281 166.460938 559.863281 166.460938 L 559.863281 162.964844 C 559.863281 162.964844 554.683594 163.488281 552.996094 160.898438 C 552.996094 160.898438 557.40625 158.3125 555.066406 157.40625 C 552.738281 156.5 539.25 160.910156 528.878906 144.75 C 518.507812 128.585938 516.5625 136.222656 514.09375 135.0625 C 511.628906 133.902344 516.945312 126.914062 520.320312 124.71875 C 520.320312 124.71875 518.761719 119.679688 515.140625 116.578125 L 514.753906 104.425781 C 516.003906 98.828125 525.53125 93.945312 528.105469 100.929688 C 528.105469 100.929688 536.664062 89.554688 541.714844 93.6875 C 546.769531 97.820312 541.714844 104.542969 533.289062 107.523438 Z M 533.269531 107.515625 " fill-opacity="1" fill-rule="evenodd"/></g><path fill="#4cad31" d="M 515.828125 144.382812 C 515.828125 144.382812 531.160156 161.238281 544.128906 165.507812 C 544.128906 165.507812 550.777344 164.15625 551.117188 166.40625 C 551.453125 168.65625 551.003906 182.710938 551.003906 182.710938 C 551.003906 182.710938 549.988281 184.734375 548.410156 182.035156 C 546.832031 179.335938 540.605469 167.402344 531.886719 165.554688 C 523.15625 163.714844 511.941406 148.261719 515.828125 144.375 Z M 515.828125 144.382812 " fill-opacity="1" fill-rule="evenodd"/><path fill="#4cad31" d="M 525.226562 165.425781 C 525.226562 165.425781 525.824219 169.441406 529.253906 171.964844 C 532.683594 174.488281 550.429688 196.640625 553.261719 220.136719 C 553.261719 220.136719 555.5 221.023438 556.542969 218.644531 C 557.589844 216.269531 560.421875 218.34375 563.402344 216.257812 C 566.382812 214.171875 570.261719 207.78125 577.867188 209.410156 C 577.867188 209.410156 581.890625 212.378906 575.179688 218.03125 C 568.464844 223.683594 564.292969 222.652344 564.292969 222.652344 L 564.292969 226.519531 L 549.675781 226.976562 C 549.675781 226.976562 545.347656 200.507812 542.21875 199.175781 C 539.09375 197.839844 524.925781 217.621094 524.925781 217.621094 C 524.925781 217.621094 523.925781 220.449219 530.289062 218.957031 C 536.652344 217.464844 532.378906 226.246094 532.378906 226.246094 L 512.703125 226.246094 C 512.703125 226.246094 513.152344 224.167969 510.539062 224.097656 C 507.921875 224.023438 508.96875 221.050781 512.398438 220.894531 C 515.828125 220.75 506.585938 216.734375 507.921875 213.167969 C 509.261719 209.601562 530.4375 191.289062 531.335938 188.464844 C 532.234375 185.640625 513.882812 169.441406 525.21875 165.417969 Z M 525.226562 165.425781 " fill-opacity="1" fill-rule="evenodd"/><path fill="#4cad31" d="M 159.222656 103.164062 L 175.5 131.796875 L 193.867188 103.144531 L 208.679688 103.144531 C 208.679688 103.144531 182.890625 142.507812 182.890625 142.507812 L 204.925781 180.765625 L 190.117188 180.765625 C 190.117188 180.765625 174.683594 153.226562 174.683594 153.226562 L 157.050781 180.792969 L 142.136719 180.792969 C 142.136719 180.792969 167.101562 142.515625 167.101562 142.515625 L 144.320312 103.164062 L 159.230469 103.164062 Z M 212.730469 180.765625 L 215.703125 103.136719 L 245.414062 103.117188 C 248.640625 103.117188 251.578125 103.839844 254.21875 105.304688 C 256.859375 106.757812 259.140625 108.722656 261.050781 111.203125 C 262.964844 113.679688 264.414062 116.453125 265.425781 119.507812 C 266.421875 122.570312 266.863281 125.699219 266.746094 128.90625 C 266.578125 133.28125 265.496094 137.441406 263.507812 141.375 C 261.515625 145.304688 258.859375 148.515625 255.539062 150.996094 C 252.21875 153.472656 248.359375 154.71875 243.945312 154.71875 L 227.359375 154.71875 C 227.359375 154.71875 226.359375 180.746094 226.359375 180.746094 L 212.730469 180.746094 Z M 227.851562 141.5 L 243.644531 141.5 C 245.285156 141.5 246.789062 140.980469 248.148438 139.964844 C 249.503906 138.941406 250.613281 137.46875 251.476562 135.539062 C 252.339844 133.609375 252.816406 131.40625 252.914062 128.925781 C 253.015625 126.226562 252.660156 123.933594 251.84375 122.039062 C 251.027344 120.144531 249.925781 118.71875 248.550781 117.777344 C 247.175781 116.835938 245.660156 116.359375 244.011719 116.359375 L 228.808594 116.359375 C 228.808594 116.359375 227.84375 141.511719 227.84375 141.511719 Z M 274.226562 180.738281 L 277.199219 103.109375 L 308.195312 103.089844 C 311.421875 103.089844 314.367188 103.8125 317.042969 105.273438 C 319.722656 106.730469 322.015625 108.695312 323.921875 111.175781 C 325.839844 113.652344 327.277344 116.425781 328.242188 119.480469 C 329.210938 122.542969 329.632812 125.671875 329.507812 128.878906 C 329.378906 132.164062 328.753906 135.308594 327.617188 138.335938 C 326.480469 141.363281 324.910156 144.007812 322.921875 146.265625 C 320.921875 148.527344 318.621094 150.28125 316.007812 151.515625 L 330.882812 180.699219 L 315.878906 180.699219 C 315.878906 180.699219 302.460938 154.691406 302.460938 154.691406 L 288.835938 154.691406 C 288.835938 154.691406 287.835938 180.71875 287.835938 180.71875 L 274.210938 180.71875 Z M 289.359375 141.472656 L 306.433594 141.472656 C 308.148438 141.464844 309.679688 140.898438 311.035156 139.773438 C 312.394531 138.640625 313.503906 137.128906 314.367188 135.238281 C 315.226562 133.34375 315.703125 131.230469 315.796875 128.898438 C 315.886719 126.421875 315.511719 124.253906 314.660156 122.394531 C 313.804688 120.539062 312.695312 119.058594 311.320312 117.96875 C 309.945312 116.882812 308.441406 116.332031 306.792969 116.332031 L 290.304688 116.332031 C 290.304688 116.332031 289.339844 141.492188 289.339844 141.492188 Z M 389.058594 167.449219 L 388.554688 180.683594 L 339.886719 180.710938 L 342.859375 103.082031 L 390.636719 103.054688 L 390.132812 116.285156 L 355.972656 116.304688 L 355.257812 135 L 384.777344 134.980469 L 384.308594 147.226562 L 354.789062 147.246094 L 354.019531 167.476562 L 389.066406 167.457031 Z M 443.164062 123.355469 C 442.722656 122.84375 441.90625 122.160156 440.722656 121.28125 C 439.539062 120.402344 438.089844 119.570312 436.375 118.765625 C 434.660156 117.960938 432.800781 117.257812 430.78125 116.632812 C 428.765625 116.011719 426.703125 115.710938 424.601562 115.710938 C 420.914062 115.710938 418.109375 116.480469 416.175781 117.996094 C 414.238281 119.523438 413.222656 121.664062 413.113281 124.425781 C 413.027344 126.519531 413.5625 128.195312 414.699219 129.421875 C 415.835938 130.65625 417.570312 131.714844 419.90625 132.566406 C 422.246094 133.445312 425.171875 134.386719 428.683594 135.402344 C 433.242188 136.617188 437.183594 138.125 440.503906 139.902344 C 443.824219 141.683594 446.335938 144 448.03125 146.859375 C 449.730469 149.742188 450.488281 153.527344 450.316406 158.230469 C 450.160156 162.363281 449.335938 165.902344 447.839844 168.839844 C 446.34375 171.792969 444.347656 174.160156 441.84375 175.960938 C 439.339844 177.78125 436.523438 179.117188 433.394531 179.941406 C 430.269531 180.78125 426.96875 181.203125 423.472656 181.203125 C 419.988281 181.203125 416.515625 180.808594 413.058594 180.003906 C 409.597656 179.199219 406.289062 178.058594 403.117188 176.566406 C 399.953125 175.074219 397.054688 173.273438 394.441406 171.160156 L 400.960938 158.148438 C 401.53125 158.804688 402.546875 159.65625 404.023438 160.714844 C 405.5 161.769531 407.296875 162.828125 409.433594 163.882812 C 411.5625 164.933594 413.898438 165.828125 416.441406 166.5625 C 418.980469 167.292969 421.566406 167.648438 424.199219 167.648438 C 427.886719 167.648438 430.710938 166.953125 432.671875 165.582031 C 434.632812 164.210938 435.660156 162.261719 435.761719 159.746094 C 435.855469 157.414062 435.167969 155.613281 433.699219 154.296875 C 432.230469 152.988281 430.167969 151.855469 427.507812 150.875 C 424.851562 149.898438 421.695312 148.816406 418.054688 147.675781 C 413.699219 146.292969 410.066406 144.75 407.179688 143.054688 C 404.28125 141.347656 402.164062 139.195312 400.8125 136.570312 C 399.464844 133.964844 398.871094 130.710938 399.015625 126.769531 C 399.21875 121.480469 400.519531 117.035156 402.933594 113.441406 C 405.34375 109.828125 408.527344 107.113281 412.480469 105.257812 C 416.429688 103.417969 420.777344 102.484375 425.519531 102.476562 C 428.8125 102.476562 431.902344 102.878906 434.800781 103.675781 C 437.699219 104.46875 440.402344 105.53125 442.925781 106.839844 C 445.4375 108.148438 447.691406 109.574219 449.671875 111.101562 L 443.179688 123.347656 Z M 503.675781 123.328125 C 503.238281 122.816406 502.421875 122.132812 501.238281 121.253906 C 500.054688 120.375 498.605469 119.542969 496.890625 118.738281 C 495.175781 117.933594 493.316406 117.230469 491.296875 116.605469 C 489.28125 115.984375 487.21875 115.683594 485.117188 115.683594 C 481.429688 115.683594 478.625 116.453125 476.691406 117.96875 C 474.753906 119.496094 473.738281 121.636719 473.625 124.398438 C 473.542969 126.492188 474.074219 128.167969 475.214844 129.394531 C 476.351562 130.628906 478.082031 131.6875 480.421875 132.539062 C 482.761719 133.40625 485.6875 134.359375 489.199219 135.375 C 493.753906 136.589844 497.699219 138.097656 501.019531 139.875 C 504.339844 141.65625 506.851562 143.972656 508.546875 146.832031 C 510.242188 149.714844 511.003906 153.5 510.832031 158.203125 C 510.675781 162.335938 509.847656 165.875 508.355469 168.8125 C 506.859375 171.765625 504.859375 174.132812 502.355469 175.933594 C 499.855469 177.753906 497.039062 179.089844 493.910156 179.914062 C 490.785156 180.753906 487.484375 181.175781 483.988281 181.175781 C 480.503906 181.175781 477.027344 180.78125 473.570312 179.976562 C 470.113281 179.183594 466.804688 178.03125 463.632812 176.539062 C 460.46875 175.046875 457.570312 173.246094 454.957031 171.132812 L 461.476562 158.121094 C 462.042969 158.777344 463.0625 159.628906 464.539062 160.6875 C 466.015625 161.742188 467.8125 162.800781 469.949219 163.855469 C 472.078125 164.90625 474.414062 165.800781 476.957031 166.535156 C 479.496094 167.265625 482.082031 167.621094 484.714844 167.621094 C 488.398438 167.621094 491.222656 166.925781 493.1875 165.554688 C 495.148438 164.183594 496.175781 162.234375 496.277344 159.71875 C 496.367188 157.386719 495.679688 155.585938 494.214844 154.269531 C 492.746094 152.960938 490.683594 151.828125 488.023438 150.847656 C 485.363281 149.871094 482.210938 148.789062 478.570312 147.648438 C 474.214844 146.265625 470.582031 144.722656 467.695312 143.027344 C 464.796875 141.320312 462.675781 139.167969 461.328125 136.542969 C 459.980469 133.9375 459.386719 130.683594 459.53125 126.742188 C 459.734375 121.453125 461.035156 117.007812 463.449219 113.414062 C 465.859375 109.800781 469.03125 107.085938 472.992188 105.230469 C 476.945312 103.390625 481.292969 102.457031 486.035156 102.449219 C 489.328125 102.449219 492.417969 102.851562 495.316406 103.648438 C 498.210938 104.453125 500.917969 105.503906 503.4375 106.8125 C 505.960938 108.121094 508.207031 109.546875 510.1875 111.074219 L 503.695312 123.320312 Z M 503.675781 123.328125 " fill-opacity="1" fill-rule="evenodd"/><path fill="#0c74bb" d="M 132.636719 223.183594 L 132.636719 211.742188 L 126.550781 193.191406 L 131.675781 193.191406 C 131.675781 193.191406 135.390625 205.074219 135.390625 205.074219 L 138.882812 193.183594 L 143.898438 193.183594 C 143.898438 193.183594 137.882812 211.730469 137.882812 211.730469 L 137.882812 223.171875 L 132.648438 223.171875 Z M 154.410156 223.574219 C 152.28125 223.574219 150.585938 223.183594 149.320312 222.394531 C 148.054688 221.609375 147.15625 220.476562 146.605469 218.992188 C 146.0625 217.511719 145.789062 215.753906 145.789062 213.734375 L 145.789062 202.511719 C 145.789062 200.492188 146.0625 198.753906 146.605469 197.308594 C 147.144531 195.863281 148.054688 194.757812 149.320312 193.996094 C 150.585938 193.230469 152.28125 192.84375 154.410156 192.84375 C 156.589844 192.84375 158.304688 193.230469 159.554688 193.988281 C 160.800781 194.757812 161.707031 195.855469 162.265625 197.300781 C 162.828125 198.746094 163.101562 200.472656 163.101562 202.503906 L 163.101562 213.761719 C 163.101562 215.765625 162.828125 217.492188 162.265625 218.964844 C 161.707031 220.4375 160.808594 221.574219 159.554688 222.378906 C 158.304688 223.183594 156.589844 223.585938 154.410156 223.585938 Z M 154.410156 219.542969 C 155.324219 219.542969 156.003906 219.339844 156.433594 218.949219 C 156.867188 218.554688 157.160156 218.003906 157.304688 217.320312 C 157.453125 216.625 157.527344 215.875 157.527344 215.0625 L 157.527344 201.25 C 157.527344 200.410156 157.453125 199.660156 157.304688 198.992188 C 157.160156 198.324219 156.867188 197.800781 156.433594 197.417969 C 156.003906 197.035156 155.324219 196.84375 154.410156 196.84375 C 153.546875 196.84375 152.886719 197.035156 152.4375 197.417969 C 151.988281 197.800781 151.695312 198.324219 151.546875 198.992188 C 151.398438 199.660156 151.328125 200.410156 151.328125 201.25 L 151.328125 215.0625 C 151.328125 215.875 151.390625 216.625 151.527344 217.320312 C 151.667969 218.015625 151.960938 218.554688 152.398438 218.949219 C 152.847656 219.339844 153.519531 219.542969 154.410156 219.542969 Z M 175.398438 223.566406 C 173.171875 223.566406 171.4375 223.164062 170.199219 222.351562 C 168.960938 221.535156 168.109375 220.375 167.640625 218.875 C 167.171875 217.367188 166.933594 215.5625 166.933594 213.46875 L 166.933594 193.175781 L 172.28125 193.175781 C 172.28125 193.175781 172.28125 214.089844 172.28125 214.089844 C 172.28125 215.03125 172.34375 215.910156 172.464844 216.734375 C 172.582031 217.558594 172.878906 218.226562 173.335938 218.738281 C 173.792969 219.238281 174.480469 219.496094 175.398438 219.496094 C 176.363281 219.496094 177.066406 219.238281 177.5 218.738281 C 177.929688 218.234375 178.214844 217.566406 178.351562 216.734375 C 178.488281 215.910156 178.554688 215.023438 178.554688 214.089844 L 178.554688 193.175781 L 183.863281 193.175781 C 183.863281 193.175781 183.863281 213.460938 183.863281 213.460938 C 183.863281 215.554688 183.625 217.355469 183.15625 218.863281 C 182.6875 220.375 181.835938 221.535156 180.617188 222.351562 C 179.386719 223.164062 177.65625 223.574219 175.398438 223.574219 Z M 188.171875 223.15625 L 188.171875 193.164062 L 195.382812 193.164062 C 197.40625 193.164062 199.121094 193.402344 200.527344 193.878906 C 201.929688 194.363281 202.992188 195.179688 203.71875 196.339844 C 204.449219 197.5 204.808594 199.082031 204.808594 201.078125 C 204.808594 202.285156 204.699219 203.371094 204.476562 204.332031 C 204.257812 205.292969 203.882812 206.117188 203.339844 206.792969 C 202.808594 207.46875 202.074219 208 201.132812 208.367188 L 205.332031 223.136719 L 199.839844 223.136719 C 199.839844 223.136719 196.199219 209.410156 196.199219 209.410156 L 193.675781 209.410156 L 193.675781 223.144531 L 188.171875 223.144531 Z M 193.675781 205.96875 L 195.382812 205.96875 C 196.445312 205.96875 197.296875 205.8125 197.921875 205.503906 C 198.554688 205.191406 199.003906 204.699219 199.277344 204.023438 C 199.554688 203.34375 199.691406 202.476562 199.691406 201.414062 C 199.691406 199.90625 199.417969 198.78125 198.855469 198.03125 C 198.296875 197.28125 197.242188 196.90625 195.683594 196.90625 L 193.675781 196.90625 L 193.675781 205.980469 Z M 217.96875 223.144531 L 217.96875 193.15625 L 223.460938 193.15625 C 223.460938 193.15625 223.460938 219.367188 223.460938 219.367188 L 230.742188 219.367188 C 230.742188 219.367188 230.742188 223.144531 230.742188 223.144531 Z M 241.40625 223.539062 C 239.28125 223.539062 237.582031 223.144531 236.316406 222.359375 C 235.050781 221.574219 234.152344 220.4375 233.601562 218.957031 C 233.0625 217.476562 232.785156 215.71875 232.785156 213.699219 L 232.785156 202.476562 C 232.785156 200.453125 233.0625 198.71875 233.601562 197.273438 C 234.144531 195.828125 235.050781 194.71875 236.316406 193.960938 C 237.582031 193.191406 239.28125 192.808594 241.40625 192.808594 C 243.589844 192.808594 245.304688 193.191406 246.550781 193.953125 C 247.796875 194.71875 248.707031 195.816406 249.265625 197.261719 C 249.824219 198.707031 250.101562 200.4375 250.101562 202.46875 L 250.101562 213.726562 C 250.101562 215.726562 249.824219 217.457031 249.265625 218.929688 C 248.707031 220.402344 247.808594 221.535156 246.550781 222.339844 C 245.304688 223.144531 243.589844 223.546875 241.40625 223.546875 Z M 241.40625 219.503906 C 242.324219 219.503906 243.003906 219.304688 243.433594 218.910156 C 243.863281 218.519531 244.15625 217.96875 244.304688 217.28125 C 244.453125 216.589844 244.523438 215.839844 244.523438 215.023438 L 244.523438 201.214844 C 244.523438 200.371094 244.453125 199.621094 244.304688 198.953125 C 244.15625 198.289062 243.863281 197.765625 243.433594 197.382812 C 243.003906 196.996094 242.324219 196.804688 241.40625 196.804688 C 240.535156 196.804688 239.882812 196.996094 239.433594 197.382812 C 238.984375 197.765625 238.691406 198.289062 238.546875 198.953125 C 238.398438 199.621094 238.324219 200.371094 238.324219 201.214844 L 238.324219 215.023438 C 238.324219 215.839844 238.390625 216.589844 238.527344 217.28125 C 238.664062 217.976562 238.957031 218.519531 239.398438 218.910156 C 239.847656 219.304688 240.515625 219.503906 241.40625 219.503906 Z M 261.691406 223.53125 C 259.710938 223.53125 258.144531 223.109375 256.976562 222.277344 C 255.8125 221.433594 254.980469 220.246094 254.472656 218.699219 C 253.96875 217.15625 253.714844 215.335938 253.714844 213.242188 L 253.714844 203.171875 C 253.714844 201.023438 253.960938 199.175781 254.457031 197.621094 C 254.953125 196.066406 255.824219 194.875 257.078125 194.042969 C 258.324219 193.210938 260.058594 192.800781 262.261719 192.800781 C 264.3125 192.800781 265.945312 193.148438 267.167969 193.832031 C 268.375 194.519531 269.257812 195.515625 269.789062 196.816406 C 270.320312 198.113281 270.585938 199.6875 270.585938 201.535156 L 270.585938 203.089844 L 265.351562 203.089844 C 265.351562 203.089844 265.351562 201.386719 265.351562 201.386719 C 265.351562 200.425781 265.285156 199.59375 265.148438 198.910156 C 265.011719 198.214844 264.734375 197.691406 264.332031 197.335938 C 263.921875 196.980469 263.257812 196.796875 262.34375 196.796875 C 261.378906 196.796875 260.671875 197.035156 260.242188 197.5 C 259.8125 197.96875 259.535156 198.589844 259.425781 199.347656 C 259.316406 200.117188 259.261719 200.949219 259.261719 201.863281 L 259.261719 214.410156 C 259.261719 215.445312 259.34375 216.351562 259.519531 217.117188 C 259.691406 217.886719 260.011719 218.472656 260.480469 218.875 C 260.949219 219.285156 261.617188 219.488281 262.488281 219.488281 C 263.378906 219.488281 264.058594 219.269531 264.535156 218.820312 C 265.003906 218.371094 265.332031 217.757812 265.515625 216.960938 C 265.699219 216.175781 265.789062 215.234375 265.789062 214.144531 L 265.789062 211.328125 L 262.5625 211.328125 C 262.5625 211.328125 262.5625 207.890625 262.5625 207.890625 L 270.734375 207.890625 C 270.734375 207.890625 270.734375 223.109375 270.734375 223.109375 L 267.203125 223.109375 C 267.203125 223.109375 266.789062 220.144531 266.789062 220.144531 C 266.394531 221.132812 265.789062 221.9375 264.992188 222.570312 C 264.1875 223.199219 263.09375 223.511719 261.710938 223.511719 Z M 275.0625 223.109375 L 275.0625 193.121094 L 280.480469 193.121094 C 280.480469 193.121094 280.480469 223.109375 280.480469 223.109375 Z M 292.707031 223.511719 C 290.898438 223.511719 289.386719 223.164062 288.175781 222.460938 C 286.964844 221.753906 286.046875 220.730469 285.425781 219.367188 C 284.800781 218.015625 284.460938 216.339844 284.386719 214.367188 L 289.101562 213.441406 C 289.148438 214.601562 289.292969 215.628906 289.53125 216.515625 C 289.769531 217.402344 290.128906 218.085938 290.605469 218.574219 C 291.089844 219.058594 291.722656 219.296875 292.523438 219.296875 C 293.410156 219.296875 294.042969 219.03125 294.421875 218.5 C 294.796875 217.96875 294.980469 217.292969 294.980469 216.476562 C 294.980469 215.171875 294.6875 214.101562 294.089844 213.257812 C 293.496094 212.417969 292.707031 211.585938 291.714844 210.742188 L 287.929688 207.414062 C 286.863281 206.5 286.011719 205.484375 285.386719 204.359375 C 284.753906 203.234375 284.441406 201.84375 284.441406 200.199219 C 284.441406 197.828125 285.140625 196 286.523438 194.71875 C 287.910156 193.441406 289.808594 192.789062 292.210938 192.789062 C 293.621094 192.789062 294.796875 193 295.742188 193.441406 C 296.683594 193.871094 297.429688 194.472656 297.988281 195.234375 C 298.546875 196 298.960938 196.871094 299.234375 197.839844 C 299.511719 198.816406 299.683594 199.84375 299.757812 200.929688 L 295.082031 201.746094 C 295.035156 200.800781 294.925781 199.96875 294.769531 199.230469 C 294.605469 198.488281 294.320312 197.914062 293.917969 197.492188 C 293.503906 197.070312 292.90625 196.859375 292.117188 196.859375 C 291.300781 196.859375 290.679688 197.125 290.238281 197.65625 C 289.808594 198.1875 289.585938 198.84375 289.585938 199.640625 C 289.585938 200.65625 289.796875 201.488281 290.21875 202.136719 C 290.640625 202.785156 291.246094 203.464844 292.035156 204.160156 L 295.785156 207.453125 C 297.023438 208.484375 298.078125 209.703125 298.960938 211.101562 C 299.839844 212.492188 300.28125 214.183594 300.28125 216.15625 C 300.28125 217.59375 299.96875 218.863281 299.335938 219.972656 C 298.703125 221.078125 297.824219 221.957031 296.695312 222.585938 C 295.566406 223.21875 294.246094 223.53125 292.742188 223.53125 Z M 306.488281 223.101562 L 306.488281 197.144531 L 301.691406 197.144531 C 301.691406 197.144531 301.691406 193.109375 301.691406 193.109375 L 316.695312 193.109375 C 316.695312 193.109375 316.695312 197.144531 316.695312 197.144531 L 311.980469 197.144531 L 311.980469 223.101562 L 306.480469 223.101562 Z M 319.601562 223.089844 L 319.601562 193.101562 L 325.023438 193.101562 C 325.023438 193.101562 325.023438 223.089844 325.023438 223.089844 Z M 337.757812 223.492188 C 335.558594 223.492188 333.824219 223.0625 332.578125 222.203125 C 331.332031 221.34375 330.449219 220.164062 329.957031 218.671875 C 329.460938 217.183594 329.210938 215.453125 329.210938 213.503906 L 329.210938 202.804688 C 329.210938 200.757812 329.460938 198.980469 329.957031 197.472656 C 330.449219 195.964844 331.320312 194.804688 332.578125 193.988281 C 333.824219 193.175781 335.558594 192.761719 337.757812 192.761719 C 339.839844 192.761719 341.464844 193.109375 342.648438 193.816406 C 343.820312 194.519531 344.65625 195.523438 345.152344 196.832031 C 345.644531 198.140625 345.894531 199.660156 345.894531 201.386719 L 345.894531 203.902344 L 340.621094 203.902344 C 340.621094 203.902344 340.621094 201.316406 340.621094 201.316406 C 340.621094 200.472656 340.574219 199.714844 340.492188 199.019531 C 340.410156 198.324219 340.171875 197.773438 339.785156 197.371094 C 339.402344 196.96875 338.742188 196.761719 337.796875 196.761719 C 336.851562 196.761719 336.164062 196.980469 335.734375 197.410156 C 335.300781 197.839844 335.015625 198.425781 334.898438 199.148438 C 334.777344 199.878906 334.714844 200.691406 334.714844 201.605469 L 334.714844 214.640625 C 334.714844 215.726562 334.796875 216.625 334.972656 217.320312 C 335.144531 218.023438 335.457031 218.554688 335.917969 218.910156 C 336.375 219.269531 337 219.449219 337.796875 219.449219 C 338.714844 219.449219 339.363281 219.230469 339.75 218.800781 C 340.132812 218.371094 340.371094 217.796875 340.472656 217.082031 C 340.574219 216.367188 340.621094 215.5625 340.621094 214.675781 L 340.621094 211.96875 L 345.894531 211.96875 C 345.894531 211.96875 345.894531 214.375 345.894531 214.375 C 345.894531 216.148438 345.65625 217.722656 345.1875 219.09375 C 344.71875 220.464844 343.894531 221.535156 342.71875 222.3125 C 341.546875 223.089844 339.886719 223.484375 337.757812 223.484375 Z M 357.300781 223.484375 C 355.496094 223.484375 353.980469 223.136719 352.769531 222.433594 C 351.5625 221.726562 350.644531 220.703125 350.019531 219.339844 C 349.394531 217.988281 349.058594 216.3125 348.984375 214.347656 L 353.699219 213.421875 C 353.742188 214.585938 353.890625 215.609375 354.128906 216.496094 C 354.367188 217.382812 354.722656 218.070312 355.203125 218.554688 C 355.6875 219.039062 356.320312 219.277344 357.117188 219.277344 C 358.007812 219.277344 358.640625 219.011719 359.015625 218.480469 C 359.390625 217.949219 359.574219 217.273438 359.574219 216.460938 C 359.574219 215.152344 359.28125 214.082031 358.6875 213.242188 C 358.089844 212.398438 357.300781 211.566406 356.3125 210.726562 L 352.523438 207.394531 C 351.460938 206.480469 350.605469 205.464844 349.984375 204.339844 C 349.359375 203.21875 349.039062 201.828125 349.039062 200.179688 C 349.039062 197.8125 349.734375 195.984375 351.121094 194.703125 C 352.503906 193.421875 354.402344 192.773438 356.804688 192.773438 C 358.21875 192.773438 359.390625 192.984375 360.335938 193.421875 C 361.28125 193.851562 362.023438 194.457031 362.582031 195.214844 C 363.144531 195.984375 363.554688 196.851562 363.832031 197.820312 C 364.105469 198.800781 364.28125 199.824219 364.351562 200.914062 L 359.675781 201.726562 C 359.628906 200.785156 359.519531 199.953125 359.363281 199.210938 C 359.199219 198.46875 358.914062 197.894531 358.511719 197.472656 C 358.097656 197.050781 357.503906 196.84375 356.714844 196.84375 C 355.898438 196.84375 355.273438 197.109375 354.835938 197.636719 C 354.402344 198.167969 354.183594 198.828125 354.183594 199.621094 C 354.183594 200.636719 354.394531 201.46875 354.816406 202.121094 C 355.238281 202.769531 355.84375 203.445312 356.632812 204.140625 L 360.382812 207.433594 C 361.621094 208.464844 362.675781 209.683594 363.554688 211.082031 C 364.4375 212.472656 364.875 214.164062 364.875 216.140625 C 364.875 217.574219 364.5625 218.847656 363.929688 219.953125 C 363.296875 221.058594 362.417969 221.9375 361.289062 222.570312 C 360.164062 223.199219 358.84375 223.511719 357.339844 223.511719 Z M 376.804688 223.0625 L 376.804688 193.074219 L 385.648438 193.074219 C 387.453125 193.074219 388.921875 193.402344 390.046875 194.070312 C 391.175781 194.738281 392 195.707031 392.535156 196.980469 C 393.066406 198.25 393.332031 199.789062 393.332031 201.589844 C 393.332031 203.535156 393 205.109375 392.332031 206.308594 C 391.664062 207.507812 390.726562 208.375 389.527344 208.921875 C 388.324219 209.464844 386.902344 209.738281 385.269531 209.738281 L 382.300781 209.738281 L 382.300781 223.070312 L 376.804688 223.070312 Z M 382.300781 205.878906 L 384.382812 205.878906 C 385.371094 205.878906 386.140625 205.730469 386.703125 205.449219 C 387.261719 205.164062 387.644531 204.707031 387.855469 204.078125 C 388.066406 203.445312 388.167969 202.605469 388.167969 201.542969 C 388.167969 200.480469 388.085938 199.578125 387.929688 198.898438 C 387.765625 198.222656 387.425781 197.71875 386.894531 197.398438 C 386.363281 197.078125 385.527344 196.914062 384.390625 196.925781 L 382.308594 196.925781 L 382.308594 205.886719 Z M 393.257812 223.054688 L 398.421875 223.054688 C 398.421875 223.054688 399.648438 216.128906 399.648438 216.128906 L 404.886719 216.128906 C 404.886719 216.128906 406.078125 223.054688 406.078125 223.054688 L 411.167969 223.054688 C 411.167969 223.054688 405.152344 193.066406 405.152344 193.066406 L 399.28125 193.066406 C 399.28125 193.066406 393.265625 223.0625 393.265625 223.0625 Z M 400.210938 212.644531 L 402.253906 200.050781 L 404.300781 212.636719 L 400.210938 212.636719 Z M 414.019531 223.042969 L 414.019531 193.054688 L 421.226562 193.054688 C 423.253906 193.054688 424.96875 193.292969 426.371094 193.769531 C 427.773438 194.253906 428.839844 195.066406 429.5625 196.230469 C 430.296875 197.390625 430.65625 198.972656 430.65625 200.96875 C 430.65625 202.175781 430.542969 203.261719 430.324219 204.222656 C 430.105469 205.183594 429.726562 206.007812 429.1875 206.683594 C 428.65625 207.359375 427.921875 207.890625 426.976562 208.257812 L 431.175781 223.027344 L 425.683594 223.027344 C 425.683594 223.027344 422.042969 209.296875 422.042969 209.296875 L 419.523438 209.296875 L 419.523438 223.035156 L 414.027344 223.035156 Z M 419.523438 205.859375 L 421.226562 205.859375 C 422.292969 205.859375 423.144531 205.703125 423.769531 205.394531 C 424.398438 205.082031 424.851562 204.589844 425.125 203.910156 C 425.398438 203.234375 425.539062 202.367188 425.539062 201.304688 C 425.539062 199.796875 425.261719 198.671875 424.703125 197.921875 C 424.144531 197.171875 423.089844 196.796875 421.53125 196.796875 L 419.523438 196.796875 L 419.523438 205.867188 Z M 437.726562 223.035156 L 437.726562 197.078125 L 432.929688 197.078125 C 432.929688 197.078125 432.929688 193.046875 432.929688 193.046875 L 447.929688 193.046875 C 447.929688 193.046875 447.929688 197.078125 447.929688 197.078125 L 443.21875 197.078125 L 443.21875 223.035156 Z M 450.683594 223.027344 L 450.683594 193.039062 L 454.507812 193.039062 C 454.507812 193.039062 461.824219 210.140625 461.824219 210.140625 L 461.824219 193.039062 L 466.355469 193.039062 C 466.355469 193.039062 466.355469 223.027344 466.355469 223.027344 L 462.714844 223.027344 C 462.714844 223.027344 455.359375 205.109375 455.359375 205.109375 L 455.359375 223.027344 Z M 470.929688 223.015625 L 470.929688 193.027344 L 483.558594 193.027344 C 483.558594 193.027344 483.558594 196.871094 483.558594 196.871094 L 476.421875 196.871094 L 476.421875 205.503906 L 482.035156 205.503906 C 482.035156 205.503906 482.035156 209.316406 482.035156 209.316406 L 476.421875 209.316406 L 476.421875 219.238281 L 483.632812 219.238281 C 483.632812 219.238281 483.632812 223.015625 483.632812 223.015625 Z M 486.832031 223.007812 L 486.832031 193.019531 L 494.039062 193.019531 C 496.066406 193.019531 497.78125 193.257812 499.183594 193.734375 C 500.585938 194.21875 501.652344 195.03125 502.375 196.191406 C 503.109375 197.355469 503.464844 198.9375 503.464844 200.929688 C 503.464844 202.136719 503.355469 203.226562 503.136719 204.1875 C 502.917969 205.148438 502.539062 205.96875 502 206.648438 C 501.46875 207.324219 500.734375 207.855469 499.789062 208.21875 L 503.988281 222.988281 L 498.496094 222.988281 C 498.496094 222.988281 494.855469 209.253906 494.855469 209.253906 L 492.335938 209.253906 L 492.335938 222.988281 L 486.832031 222.988281 Z M 492.324219 205.824219 L 494.03125 205.824219 C 495.09375 205.824219 495.945312 205.667969 496.570312 205.355469 C 497.203125 205.046875 497.652344 204.550781 497.929688 203.875 C 498.203125 203.199219 498.339844 202.328125 498.339844 201.269531 C 498.339844 199.761719 498.066406 198.636719 497.507812 197.886719 C 496.945312 197.136719 495.890625 196.761719 494.332031 196.761719 L 492.324219 196.761719 L 492.324219 205.832031 Z M 492.324219 205.824219 " fill-opacity="1" fill-rule="evenodd"/><path fill="#0064af" d="M 83.511719 180.507812 C 82.402344 180.792969 82.367188 180.753906 82.566406 179.710938 C 82.503906 179.710938 82.421875 179.683594 82.382812 179.710938 C 81.46875 180.488281 81.402344 180.515625 80.964844 179.429688 C 80.613281 178.570312 79.945312 178.074219 79.222656 177.699219 C 78.449219 177.308594 77.5625 177.65625 76.773438 177.773438 C 75.480469 177.964844 74.203125 178.367188 73.085938 179.097656 C 72.460938 179.511719 71.710938 179.375 71.085938 179.410156 C 69.867188 179.472656 68.867188 180.078125 67.75 180.351562 C 67.1875 180.488281 66.703125 180.535156 66.144531 180.316406 C 65.097656 179.914062 64.96875 179.464844 65.730469 178.714844 C 66.261719 178.195312 66.613281 177.488281 66.445312 176.785156 C 65.996094 174.875 66.558594 172.992188 66.484375 171.097656 C 66.464844 170.640625 66.457031 170.183594 66.546875 169.714844 C 66.851562 168.160156 68.261719 168.023438 69.34375 167.539062 C 70.269531 167.128906 71.195312 166.707031 72.289062 166.652344 C 73.121094 166.605469 73.792969 165.882812 74.269531 165.160156 C 74.636719 164.59375 74.671875 163.78125 75.699219 163.828125 C 75.828125 163.828125 76.597656 163.09375 76.890625 162.527344 C 77.285156 161.75 78.019531 161.375 78.816406 161.164062 C 79.386719 161.019531 79.898438 161.117188 80.320312 161.640625 C 80.632812 162.023438 80.953125 162.300781 81.121094 161.4375 C 81.265625 160.671875 81.722656 160.023438 82.667969 159.910156 C 83 159.875 83.328125 159.664062 83.632812 159.472656 C 84.84375 158.714844 85.960938 159.308594 87.050781 159.746094 C 87.558594 159.957031 87.347656 160.425781 87.117188 160.808594 C 86.597656 161.65625 86.714844 162.382812 87.472656 162.992188 C 87.621094 163.113281 87.777344 163.230469 87.949219 163.324219 C 88.519531 163.644531 89.171875 164.546875 89.621094 164.183594 C 90.390625 163.5625 91.214844 162.757812 91.125 161.503906 C 91.070312 160.699219 91.390625 159.9375 91.691406 159.179688 C 91.820312 158.84375 92.003906 158.714844 92.351562 158.722656 C 92.71875 158.730469 92.867188 158.90625 92.921875 159.261719 C 93.066406 160.148438 93.628906 160.800781 94.121094 161.523438 C 94.710938 162.382812 94.882812 163.535156 94.636719 164.605469 C 94.535156 165.023438 94.507812 165.28125 94.828125 165.527344 C 95.691406 166.195312 96.085938 167.171875 96.488281 168.117188 C 96.855469 168.984375 97.285156 169.789062 97.964844 170.476562 C 98.441406 170.949219 98.625 171.582031 98.507812 172.269531 C 98.222656 173.839844 98.167969 175.433594 97.148438 176.839844 C 96.523438 177.710938 95.890625 178.496094 94.992188 179.035156 C 94.765625 179.171875 94.5 179.300781 94.386719 179.511719 C 93.671875 180.863281 92.195312 181.542969 91.445312 182.847656 C 91.226562 183.222656 90.957031 183.371094 90.59375 183.261719 C 89.730469 183.015625 89.097656 183.425781 88.539062 183.957031 C 88.226562 184.25 87.757812 184.441406 87.574219 184.238281 C 86.8125 183.417969 85.824219 184.011719 84.96875 183.710938 C 83.714844 183.261719 83.464844 183.078125 83.675781 181.742188 C 83.742188 181.304688 83.292969 180.972656 83.523438 180.5 Z M 83.511719 180.507812 " fill-opacity="1" fill-rule="evenodd"/><path fill="#4cad31" d="M 84.292969 104.371094 L 92.929688 104.371094 C 92.929688 104.371094 92.929688 110.605469 92.929688 110.605469 C 92.929688 111.511719 100.660156 101.800781 96.460938 99.09375 C 92.261719 96.386719 67.273438 96.421875 52.25 104.664062 C 37.238281 112.902344 28.976562 131.898438 29.308594 143.53125 C 29.308594 143.53125 32.480469 146.816406 35.074219 146.066406 C 35.074219 146.066406 34.101562 135.300781 41.769531 131.632812 C 41.769531 131.632812 45.117188 139.378906 55.367188 141.75 C 55.367188 141.75 58.496094 142.71875 56.992188 133.242188 C 56.992188 133.242188 56.339844 129.363281 61.953125 129.90625 C 67.566406 130.445312 72.425781 126.457031 72.425781 124.40625 C 72.425781 122.359375 68.425781 116.332031 70.703125 114.824219 C 72.964844 113.3125 75.773438 114.175781 75.773438 114.175781 C 75.773438 114.175781 73.828125 120.742188 75.773438 120.3125 C 77.71875 119.882812 76.855469 116.542969 78.46875 115.253906 C 80.09375 113.964844 82.027344 113.3125 82.027344 113.3125 C 82.027344 113.3125 84.511719 113.523438 86.023438 110.625 C 87.539062 107.71875 88.566406 107.773438 86.777344 106.425781 C 85 105.082031 84.292969 104.378906 84.292969 104.378906 Z M 84.292969 104.371094 " fill-opacity="1" fill-rule="evenodd"/><path fill="#4cad31" d="M 89.417969 111.605469 C 89.417969 111.605469 93.195312 117 89.417969 118.910156 C 85.640625 120.824219 83.347656 117.886719 81.761719 120.402344 C 80.175781 122.917969 78.496094 124.589844 78.210938 122.964844 C 77.929688 121.335938 78.816406 117.566406 82.640625 116.398438 C 86.464844 115.234375 86.933594 113.460938 87.261719 112.300781 C 87.59375 111.136719 89.410156 111.605469 89.410156 111.605469 Z M 89.417969 111.605469 " fill-opacity="1" fill-rule="evenodd"/><path stroke-linecap="round" transform="matrix(0.917031, 0, 0, 0.914572, 11.388134, 72.670828)" fill-opacity="1" fill="#0064af" fill-rule="evenodd" stroke-linejoin="round" d="M 44.69094 80.571607 C 44.69094 80.571607 49.610861 90.519052 53.678848 92.018216 C 57.751095 93.521651 60.319678 94.798717 62.568785 95.759719 C 64.817892 96.720722 66.210805 93.718123 62.360061 91.911438 C 58.509317 90.091939 55.191032 89.558049 53.470124 85.171606 C 51.761996 80.780892 50.15184 78.431774 49.291386 78.53001 C 48.430932 78.641059 44.69094 75.749509 44.69094 80.571607 Z M 44.69094 80.571607 " stroke="#0062ad" stroke-width="0.57" stroke-opacity="1" stroke-miterlimit="4"/><path stroke-linecap="round" transform="matrix(0.917031, 0, 0, 0.914572, 11.388134, 72.670828)" fill-opacity="1" fill="#0064af" fill-rule="evenodd" stroke-linejoin="round" d="M 69.00089 65.678201 C 69.00089 65.678201 69.541868 74.891013 74.568282 78.850344 C 79.598955 82.809675 79.168728 79.811347 76.600146 74.348581 C 74.031563 68.890086 74.138055 65.891757 73.712088 65.041804 C 73.281861 64.179037 73.601336 61.078202 69.00089 65.678201 Z M 69.00089 65.678201 " stroke="#0062ad" stroke-width="0.57" stroke-opacity="1" stroke-miterlimit="4"/><path stroke-linecap="round" transform="matrix(0.917031, 0, 0, 0.914572, 11.388134, 72.670828)" fill-opacity="1" fill="#0064af" fill-rule="evenodd" stroke-linejoin="round" d="M 66.641032 77.129081 C 66.641032 77.129081 59.569975 83.130009 58.181322 84.091012 C 56.788409 85.052014 55.399756 85.701225 58.931025 87.520723 C 62.458033 89.340222 65.571854 89.660556 65.780578 90.301224 C 65.989302 90.941893 65.030875 84.949507 67.169231 86.871513 C 69.311846 88.80206 71.019975 94.46984 72.630131 90.39946 C 74.240287 86.32908 76.698118 83.219703 72.740882 83.228245 C 68.779387 83.228245 68.191552 85.53038 67.599458 81.519796 C 67.011623 77.509211 66.641032 77.129081 66.641032 77.129081 Z M 66.641032 77.129081 " stroke="#0062ad" stroke-width="0.57" stroke-opacity="1" stroke-miterlimit="4"/><path stroke-linecap="round" transform="matrix(0.917031, 0, 0, 0.914572, 11.388134, 72.670828)" fill-opacity="1" fill="#0064af" fill-rule="evenodd" stroke-linejoin="round" d="M 77.878047 83.121467 L 77.021853 86.969749 L 78.410506 86.969749 C 78.410506 86.969749 80.979089 86.969749 80.979089 86.969749 L 82.589245 89.968077 C 82.589245 89.968077 86.231265 88.148578 87.091719 89.968077 C 87.947913 91.791846 91.159706 98.852012 92.118132 96.498624 C 93.080818 94.140964 93.728288 93.068912 95.649401 94.358791 C 97.570513 95.64867 103.137905 99.919793 101.110301 95.960462 C 99.078437 92.001131 99.397912 88.57142 93.830521 87.610417 C 88.258869 86.649414 86.661492 85.688412 86.661492 85.688412 C 86.661492 85.688412 87.198211 85.688412 85.162087 85.688412 C 83.130223 85.688412 81.839543 85.261299 81.409316 84.411346 C 80.979089 83.548579 79.590436 84.411346 79.590436 84.411346 L 78.632009 82.378291 L 77.878047 83.130009 Z M 77.878047 83.121467 " stroke="#0062ad" stroke-width="0.57" stroke-opacity="1" stroke-miterlimit="4"/><path fill="#0064af" d="M 106.941406 174.855469 C 106.941406 174.855469 99.542969 181.988281 97.066406 183.277344 C 94.597656 184.578125 99.925781 185.089844 99.925781 185.089844 C 99.925781 185.089844 106.878906 181.394531 107.265625 177.765625 C 107.648438 174.132812 106.941406 174.847656 106.941406 174.847656 Z M 106.941406 174.855469 " fill-opacity="1" fill-rule="evenodd"/><g clip-path="url(#6889c6922e)"><path fill="#4cad31" d="M 491.460938 72.671875 C 494.515625 72.671875 497.277344 73.90625 499.277344 75.890625 C 501.273438 77.882812 502.511719 80.636719 502.511719 83.671875 C 502.511719 86.710938 501.273438 89.472656 499.277344 91.464844 C 497.277344 93.460938 494.515625 94.695312 491.460938 94.695312 C 488.410156 94.695312 485.648438 93.460938 483.648438 91.472656 C 481.652344 89.480469 480.414062 86.726562 480.414062 83.691406 C 480.414062 80.65625 481.652344 77.894531 483.648438 75.898438 C 485.648438 73.90625 488.410156 72.671875 491.460938 72.671875 Z M 498.082031 77.070312 C 496.386719 75.378906 494.046875 74.335938 491.453125 74.335938 C 488.867188 74.335938 486.519531 75.386719 484.824219 77.078125 C 483.128906 78.769531 482.082031 81.113281 482.082031 83.691406 C 482.082031 86.269531 483.128906 88.613281 484.824219 90.304688 C 486.519531 91.996094 488.859375 93.039062 491.453125 93.039062 C 494.039062 93.039062 496.386719 91.988281 498.082031 90.292969 C 499.78125 88.601562 500.824219 86.261719 500.824219 83.683594 C 500.824219 81.101562 499.78125 78.761719 498.082031 77.070312 Z M 498.082031 77.070312 " fill-opacity="1" fill-rule="evenodd"/></g><path fill="#4cad31" d="M 487.695312 88.566406 L 487.695312 78.5625 L 491.957031 78.5625 C 493.03125 78.5625 493.808594 78.652344 494.296875 78.824219 C 494.78125 79.007812 495.175781 79.328125 495.460938 79.785156 C 495.753906 80.242188 495.902344 80.773438 495.902344 81.359375 C 495.902344 82.109375 495.679688 82.730469 495.242188 83.226562 C 494.800781 83.71875 494.140625 84.019531 493.261719 84.148438 C 493.699219 84.40625 494.058594 84.679688 494.34375 84.988281 C 494.625 85.292969 495.011719 85.839844 495.488281 86.617188 L 496.71875 88.566406 L 494.296875 88.566406 C 494.296875 88.566406 492.847656 86.378906 492.847656 86.378906 C 492.324219 85.601562 491.96875 85.117188 491.773438 84.917969 C 491.582031 84.714844 491.378906 84.578125 491.167969 84.503906 C 490.949219 84.433594 490.609375 84.394531 490.140625 84.394531 L 489.730469 84.394531 L 489.730469 88.574219 L 487.695312 88.574219 Z M 489.730469 82.796875 L 491.234375 82.796875 C 492.207031 82.796875 492.8125 82.75 493.050781 82.667969 C 493.289062 82.585938 493.480469 82.449219 493.617188 82.246094 C 493.753906 82.046875 493.820312 81.796875 493.820312 81.496094 C 493.820312 81.15625 493.726562 80.882812 493.542969 80.683594 C 493.359375 80.472656 493.113281 80.34375 492.785156 80.289062 C 492.617188 80.261719 492.125 80.253906 491.308594 80.253906 L 489.730469 80.253906 Z M 489.730469 82.796875 " fill-opacity="1" fill-rule="evenodd"/></svg>